<svg xmlns="http://www.w3.org/2000/svg" xmlns:xlink="http://www.w3.org/1999/xlink" width="500" zoomAndPan="magnify" viewBox="0 0 375 374.999991" height="500" preserveAspectRatio="xMidYMid meet" version="1.2"><defs><clipPath id="db3ee1e7a4"><path d="M 19.347656 19.347656 L 355.652344 19.347656 L 355.652344 355.652344 L 19.347656 355.652344 Z M 19.347656 19.347656 "/></clipPath><clipPath id="f092699292"><path d="M 187.5 19.347656 C 94.632812 19.347656 19.347656 94.632812 19.347656 187.5 C 19.347656 280.367188 94.632812 355.652344 187.5 355.652344 C 280.367188 355.652344 355.652344 280.367188 355.652344 187.5 C 355.652344 94.632812 280.367188 19.347656 187.5 19.347656 Z M 187.5 19.347656 "/></clipPath></defs><g id="a9b13f9227"><rect x="0" width="375" y="0" height="374.999991" style="fill:#ffffff;fill-opacity:1;stroke:none;"/><rect x="0" width="375" y="0" height="374.999991" style="fill:#ffffff;fill-opacity:1;stroke:none;"/><g clip-rule="nonzero" clip-path="url(#db3ee1e7a4)"><g clip-rule="nonzero" clip-path="url(#f092699292)"><path style=" stroke:none;fill-rule:nonzero;fill:#000000;fill-opacity:1;" d="M 19.347656 19.347656 L 355.652344 19.347656 L 355.652344 355.652344 L 19.347656 355.652344 Z M 19.347656 19.347656 "/></g></g><g style="fill:#eeeeee;fill-opacity:1;"><g transform="translate(124.741346, 250.790136)"><path style="stroke:none" d="M 4.953125 -165.34375 L 120.53125 -165.34375 L 120.53125 -143.015625 L 118.875 -143.015625 C 118.875 -143.242188 118.898438 -143.328125 118.953125 -143.265625 C 119.015625 -143.210938 119.046875 -143.351562 119.046875 -143.6875 C 119.046875 -147.4375 116.921875 -150.796875 112.671875 -153.765625 C 108.429688 -156.742188 102.59375 -159.140625 95.15625 -160.953125 C 87.71875 -162.773438 79.257812 -163.6875 69.78125 -163.6875 L 69.78125 -45.96875 C 69.78125 -35.164062 69.941406 -26.507812 70.265625 -20 C 70.597656 -13.5 71.726562 -8.816406 73.65625 -5.953125 C 75.582031 -3.085938 78.914062 -1.65625 83.65625 -1.65625 L 83.65625 0 L 40.515625 0 L 40.515625 -1.65625 C 45.253906 -1.65625 48.695312 -3.085938 50.84375 -5.953125 C 52.988281 -8.816406 54.335938 -13.5 54.890625 -20 C 55.441406 -26.507812 55.71875 -35.164062 55.71875 -45.96875 L 55.71875 -163.6875 C 46.238281 -163.6875 37.78125 -162.773438 30.34375 -160.953125 C 22.90625 -159.140625 17.0625 -156.742188 12.8125 -153.765625 C 8.570312 -150.796875 6.453125 -147.4375 6.453125 -143.6875 C 6.453125 -143.351562 6.476562 -143.210938 6.53125 -143.265625 C 6.582031 -143.328125 6.609375 -143.242188 6.609375 -143.015625 L 4.953125 -143.015625 Z M 4.953125 -165.34375 "/></g></g></g></svg>